<svg width="28" height="32" viewBox="0 0 28 32" fill="none" xmlns="http://www.w3.org/2000/svg">
<path d="M13.6925 21.3743L18.2357 29.9243H5.53513C3.62724 29.9243 2.07567 28.3728 2.07567 26.4649V12.7187L4.67978 15.6791C5.7254 16.8675 7.04519 17.8266 8.49816 18.4536L12.5604 20.2058C13.0759 20.4272 13.4789 20.8458 13.6891 21.3665L13.6925 21.3743ZM11.0711 24.7369C11.0711 22.6352 9.36735 20.9315 7.26573 20.9315C5.1641 20.9315 3.46032 22.6352 3.46032 24.7369C3.46032 26.8385 5.1641 28.5423 7.26573 28.5423C9.36735 28.5423 11.0711 26.8385 11.0711 24.7369Z" fill="#FCE3DE"/>
<path d="M25.6 5.53514V26.4649C25.6 28.3728 24.0476 29.9243 22.1405 29.9243H20.4774L15.6143 20.5907C15.5114 20.3373 15.4136 20.0822 15.3219 19.8262L15.0512 19.0193C14.7987 18.2071 14.6006 17.3821 14.4597 16.5457C14.387 16.1194 14.5462 15.6869 14.88 15.4119L17.6121 13.1658C19.3808 11.7111 20.3944 9.56368 20.3944 7.27352V2.07568H22.1405C24.0476 2.07568 25.6 3.62725 25.6 5.53514ZM24.2828 18.7546C24.2828 16.653 22.579 14.9492 20.4774 14.9492C18.3758 14.9492 16.672 16.653 16.672 18.7546C16.672 20.8562 18.3758 22.56 20.4774 22.56C22.579 22.56 24.2828 20.8562 24.2828 18.7546Z" fill="#FCE3DE"/>
<path d="M18.3187 2.07568V7.27352C18.3187 8.94012 17.581 10.5038 16.2932 11.5624L14.7079 12.8666C14.5003 13.037 14.189 12.8891 14.189 12.6218V2.07568H18.3187Z" fill="#FCE3DE"/>
<path d="M12.48 17.2696C12.5362 17.5671 12.2413 17.8067 11.9637 17.6874L9.32064 16.5475C8.14789 16.0415 7.08237 15.2675 6.23827 14.3083L2.07567 9.58963V5.53514C2.07567 3.62725 3.62724 2.07568 5.53513 2.07568H12.1133V13.3189C12.1133 13.8647 12.1341 14.4087 12.1756 14.9492C12.1972 15.2407 12.2249 15.5312 12.2595 15.821C12.3165 16.307 12.3901 16.7905 12.48 17.2696ZM11.0711 7.26574C11.0711 5.16412 9.36735 3.46033 7.26573 3.46033C5.1641 3.46033 3.46032 5.16412 3.46032 7.26574C3.46032 9.36736 5.1641 11.0711 7.26573 11.0711C9.36735 11.0711 11.0711 9.36736 11.0711 7.26574Z" fill="#FCE3DE"/>
<path d="M20.4774 22.56C22.5791 22.56 24.2828 20.8562 24.2828 18.7546C24.2828 16.6529 22.5791 14.9492 20.4774 14.9492C18.3757 14.9492 16.672 16.6529 16.672 18.7546C16.672 20.8562 18.3757 22.56 20.4774 22.56Z" fill="#A63F78"/>
<path d="M22.1405 0H5.53514C2.47784 0 0 2.47784 0 5.53514V26.4649C0 29.5222 2.47784 32 5.53514 32H22.1405C25.197 32 27.6757 29.5222 27.6757 26.4649V5.53514C27.6757 2.47784 25.197 0 22.1405 0ZM18.3187 2.07568V7.27351C18.3187 8.94011 17.581 10.5038 16.2932 11.5624L14.7079 12.8666C14.5003 13.037 14.189 12.8891 14.189 12.6218V2.07568H18.3187ZM2.07568 5.53514C2.07568 3.62724 3.62724 2.07568 5.53514 2.07568H12.1133V13.3189C12.1133 13.8646 12.1341 14.4086 12.1756 14.9492C12.1972 15.2406 12.2249 15.5312 12.2595 15.821C12.3165 16.307 12.3901 16.7905 12.48 17.2696C12.5362 17.5671 12.2413 17.8067 11.9637 17.6874L9.32065 16.5475C8.14789 16.0415 7.08238 15.2675 6.23827 14.3083L2.07568 9.58962V5.53514ZM5.53514 29.9243C3.62724 29.9243 2.07568 28.3728 2.07568 26.4649V12.7187L4.67978 15.6791C5.72541 16.8675 7.04519 17.8266 8.49816 18.4536L12.5604 20.2058C13.0759 20.4272 13.4789 20.8458 13.6891 21.3665L13.6925 21.3743L18.2357 29.9243H5.53514ZM25.6 26.4649C25.6 28.3728 24.0476 29.9243 22.1405 29.9243H20.4774L15.6143 20.5907C15.5114 20.3373 15.4136 20.0822 15.3219 19.8262L15.0512 19.0192C14.7987 18.2071 14.6006 17.3821 14.4597 16.5457C14.387 16.1194 14.5462 15.6869 14.88 15.4119L17.6121 13.1658C19.3808 11.7111 20.3944 9.56368 20.3944 7.27351V2.07568H22.1405C24.0476 2.07568 25.6 3.62724 25.6 5.53514V26.4649Z" fill="#1E3F33"/>
<path d="M7.26573 11.0711C9.36739 11.0711 11.0711 9.36737 11.0711 7.2657C11.0711 5.16403 9.36739 3.4603 7.26573 3.4603C5.16406 3.4603 3.46032 5.16403 3.46032 7.2657C3.46032 9.36737 5.16406 11.0711 7.26573 11.0711Z" fill="#A63F78"/>
<path d="M7.26573 28.5423C9.36739 28.5423 11.0711 26.8385 11.0711 24.7369C11.0711 22.6352 9.36739 20.9315 7.26573 20.9315C5.16406 20.9315 3.46032 22.6352 3.46032 24.7369C3.46032 26.8385 5.16406 28.5423 7.26573 28.5423Z" fill="#A63F78"/>
</svg>
