<svg width="171" height="32" viewBox="0 0 171 32" fill="none" xmlns="http://www.w3.org/2000/svg">
<path d="M13.6925 21.3743L18.2357 29.9243H5.53513C3.62724 29.9243 2.07567 28.3728 2.07567 26.4649V12.7187L4.67978 15.6791C5.7254 16.8675 7.04519 17.8266 8.49816 18.4536L12.5604 20.2058C13.0759 20.4272 13.4789 20.8458 13.6891 21.3665L13.6925 21.3743ZM11.0711 24.7369C11.0711 22.6352 9.36735 20.9315 7.26573 20.9315C5.1641 20.9315 3.46032 22.6352 3.46032 24.7369C3.46032 26.8385 5.1641 28.5423 7.26573 28.5423C9.36735 28.5423 11.0711 26.8385 11.0711 24.7369Z" fill="#FCE3DE"/>
<path d="M25.6 5.53514V26.4649C25.6 28.3728 24.0476 29.9243 22.1405 29.9243H20.4774L15.6143 20.5907C15.5114 20.3373 15.4136 20.0822 15.3219 19.8262L15.0512 19.0193C14.7987 18.2071 14.6006 17.3821 14.4597 16.5457C14.387 16.1194 14.5462 15.6869 14.88 15.4119L17.6121 13.1658C19.3808 11.7111 20.3944 9.56368 20.3944 7.27352V2.07568H22.1405C24.0476 2.07568 25.6 3.62725 25.6 5.53514ZM24.2828 18.7546C24.2828 16.653 22.579 14.9492 20.4774 14.9492C18.3758 14.9492 16.672 16.653 16.672 18.7546C16.672 20.8562 18.3758 22.56 20.4774 22.56C22.579 22.56 24.2828 20.8562 24.2828 18.7546Z" fill="#FCE3DE"/>
<path d="M18.3187 2.07568V7.27352C18.3187 8.94012 17.581 10.5038 16.2932 11.5624L14.7079 12.8666C14.5003 13.037 14.189 12.8891 14.189 12.6218V2.07568H18.3187Z" fill="#FCE3DE"/>
<path d="M12.48 17.2696C12.5362 17.5671 12.2413 17.8067 11.9637 17.6874L9.32064 16.5475C8.14789 16.0415 7.08237 15.2675 6.23827 14.3083L2.07567 9.58963V5.53514C2.07567 3.62725 3.62724 2.07568 5.53513 2.07568H12.1133V13.3189C12.1133 13.8647 12.1341 14.4087 12.1756 14.9492C12.1972 15.2407 12.2249 15.5312 12.2595 15.821C12.3165 16.307 12.3901 16.7905 12.48 17.2696ZM11.0711 7.26574C11.0711 5.16412 9.36735 3.46033 7.26573 3.46033C5.1641 3.46033 3.46032 5.16412 3.46032 7.26574C3.46032 9.36736 5.1641 11.0711 7.26573 11.0711C9.36735 11.0711 11.0711 9.36736 11.0711 7.26574Z" fill="#FCE3DE"/>
<path d="M20.4774 22.56C22.5791 22.56 24.2828 20.8562 24.2828 18.7546C24.2828 16.6529 22.5791 14.9492 20.4774 14.9492C18.3757 14.9492 16.672 16.6529 16.672 18.7546C16.672 20.8562 18.3757 22.56 20.4774 22.56Z" fill="#A63F78"/>
<path d="M22.1405 0H5.53514C2.47784 0 0 2.47784 0 5.53514V26.4649C0 29.5222 2.47784 32 5.53514 32H22.1405C25.197 32 27.6757 29.5222 27.6757 26.4649V5.53514C27.6757 2.47784 25.197 0 22.1405 0ZM18.3187 2.07568V7.27351C18.3187 8.94011 17.581 10.5038 16.2932 11.5624L14.7079 12.8666C14.5003 13.037 14.189 12.8891 14.189 12.6218V2.07568H18.3187ZM2.07568 5.53514C2.07568 3.62724 3.62724 2.07568 5.53514 2.07568H12.1133V13.3189C12.1133 13.8646 12.1341 14.4086 12.1756 14.9492C12.1972 15.2406 12.2249 15.5312 12.2595 15.821C12.3165 16.307 12.3901 16.7905 12.48 17.2696C12.5362 17.5671 12.2413 17.8067 11.9637 17.6874L9.32065 16.5475C8.14789 16.0415 7.08238 15.2675 6.23827 14.3083L2.07568 9.58962V5.53514ZM5.53514 29.9243C3.62724 29.9243 2.07568 28.3728 2.07568 26.4649V12.7187L4.67978 15.6791C5.72541 16.8675 7.04519 17.8266 8.49816 18.4536L12.5604 20.2058C13.0759 20.4272 13.4789 20.8458 13.6891 21.3665L13.6925 21.3743L18.2357 29.9243H5.53514ZM25.6 26.4649C25.6 28.3728 24.0476 29.9243 22.1405 29.9243H20.4774L15.6143 20.5907C15.5114 20.3373 15.4136 20.0822 15.3219 19.8262L15.0512 19.0192C14.7987 18.2071 14.6006 17.3821 14.4597 16.5457C14.387 16.1194 14.5462 15.6869 14.88 15.4119L17.6121 13.1658C19.3808 11.7111 20.3944 9.56368 20.3944 7.27351V2.07568H22.1405C24.0476 2.07568 25.6 3.62724 25.6 5.53514V26.4649Z" fill="#1E3F33"/>
<path d="M7.26573 11.0711C9.36739 11.0711 11.0711 9.36737 11.0711 7.2657C11.0711 5.16403 9.36739 3.4603 7.26573 3.4603C5.16406 3.4603 3.46032 5.16403 3.46032 7.2657C3.46032 9.36737 5.16406 11.0711 7.26573 11.0711Z" fill="#A63F78"/>
<path d="M7.26573 28.5423C9.36739 28.5423 11.0711 26.8385 11.0711 24.7369C11.0711 22.6352 9.36739 20.9315 7.26573 20.9315C5.16406 20.9315 3.46032 22.6352 3.46032 24.7369C3.46032 26.8385 5.16406 28.5423 7.26573 28.5423Z" fill="#A63F78"/>
<path d="M121.202 8.95499C121.924 8.56952 122.744 8.38089 123.675 8.38089C124.757 8.38089 125.729 8.64744 126.602 9.18463C127.476 9.72182 128.161 10.4887 128.677 11.4687C129.19 12.4488 129.436 13.597 129.436 14.901C129.436 16.205 129.19 17.3573 128.677 18.3743C128.165 19.3913 127.48 20.1581 126.602 20.7158C125.729 21.2735 124.757 21.5401 123.675 21.5401C122.723 21.5401 121.907 21.3473 121.202 20.9824C120.496 20.6174 119.926 20.1212 119.508 19.5266V21.3473H116.314V4.31299H119.508V10.4517C119.926 9.83664 120.48 9.34046 121.202 8.95499ZM125.729 12.9245C125.426 12.3668 125.007 11.9444 124.495 11.641C123.982 11.3539 123.428 11.1981 122.838 11.1981C122.247 11.1981 121.714 11.3498 121.202 11.641C120.689 11.9485 120.287 12.3709 119.967 12.945C119.664 13.5191 119.492 14.1711 119.492 14.9379C119.492 15.7048 119.644 16.3773 119.967 16.9309C120.291 17.4886 120.689 17.9273 121.202 18.2349C121.714 18.5424 122.247 18.6778 122.838 18.6778C123.428 18.6778 123.978 18.526 124.495 18.2185C125.007 17.9109 125.409 17.4722 125.729 16.9145C126.053 16.3568 126.205 15.6678 126.205 14.8805C126.205 14.0932 126.053 13.4412 125.729 12.8876V12.9245Z" fill="#A63F78"/>
<path d="M145.523 8.82376L137.465 27.687H133.963L136.78 21.3104L131.581 8.82376H135.255L138.618 17.7633L142.021 8.82376H145.523Z" fill="#A63F78"/>
<path d="M152.531 11.1694V17.3737C152.531 17.7961 152.63 18.1242 152.847 18.3169C153.064 18.5096 153.417 18.6039 153.925 18.6039H155.455V21.3391H153.376C150.587 21.3391 149.214 20.0105 149.214 17.3696V11.2022H147.664V8.54491H149.214V5.35046H152.531V8.51211H155.455V11.1694H152.531Z" fill="#A63F78"/>
<path d="M170.23 15.553H160.884C160.962 16.5003 161.29 17.2466 161.848 17.7797C162.406 18.3128 163.119 18.5875 163.943 18.5875C165.137 18.5875 166.002 18.0545 166.502 17.0129H169.984C169.619 18.2718 168.905 19.3175 167.868 20.1253C166.83 20.9331 165.539 21.3473 164.021 21.3473C162.791 21.3473 161.696 21.0726 160.712 20.4985C159.732 19.9449 158.982 19.1411 158.424 18.116C157.887 17.0908 157.596 15.9098 157.596 14.5689C157.596 13.2279 157.866 12.0264 158.403 11.0053C158.941 9.98016 159.691 9.19282 160.671 8.64333C161.635 8.08973 162.75 7.81499 164.017 7.81499C165.284 7.81499 166.326 8.08973 167.286 8.62283C168.249 9.15592 168.996 9.92275 169.516 10.9069C170.054 11.8911 170.304 13.0147 170.304 14.2941C170.304 14.7657 170.267 15.2004 170.209 15.5735L170.23 15.553ZM166.982 13.3263C166.982 12.4775 166.675 11.7886 166.08 11.276C165.502 10.7634 164.772 10.5092 163.927 10.5092C163.082 10.5092 162.447 10.7634 161.91 11.2596C161.372 11.7517 161.024 12.4406 160.909 13.3263H166.986H166.982Z" fill="#A63F78"/>
<path d="M42.8414 20.5231C41.8613 19.99 41.0945 19.2067 40.5204 18.2144C39.9627 17.222 39.6756 16.0779 39.6756 14.7821C39.6756 13.4863 39.9627 12.3422 40.5409 11.3498C41.115 10.3574 41.9023 9.59468 42.8988 9.04109C43.8953 8.508 45.0107 8.22095 46.2368 8.22095C47.4629 8.22095 48.5783 8.48749 49.5748 9.04109C50.5712 9.57418 51.3586 10.3574 51.9327 11.3498C52.5068 12.3422 52.7979 13.4863 52.7979 14.7821C52.7979 16.0779 52.5109 17.222 51.9163 18.2144C51.3217 19.2067 50.5343 19.9695 49.5173 20.5231C48.5209 21.0562 47.3891 21.3432 46.1425 21.3432C44.8958 21.3432 43.801 21.0767 42.825 20.5231H42.8455H42.8414ZM47.8114 18.1201C48.3281 17.833 48.7341 17.4147 49.0376 16.8406C49.3451 16.2665 49.4968 15.5817 49.4968 14.7821C49.4968 13.5806 49.1688 12.6456 48.5373 11.9977C47.9058 11.3498 47.1184 11.0258 46.1958 11.0258C45.2731 11.0258 44.5063 11.3498 43.8748 11.9977C43.2597 12.6456 42.9357 13.5806 42.9357 14.7821C42.9357 15.9836 43.2433 16.9185 43.8379 17.5665C44.453 18.2144 45.1993 18.5383 46.122 18.5383C46.6961 18.5383 47.2538 18.403 47.7704 18.1201H47.8073H47.8114Z" fill="#A63F78"/>
<path d="M55.7422 11.3416C56.2794 10.3451 57.0257 9.58238 57.9648 9.04519C58.9244 8.508 59.9947 8.22095 61.2208 8.22095C62.7913 8.22095 64.1159 8.62282 65.1492 9.40605C66.1826 10.1893 66.8756 11.3006 67.2365 12.7153H63.7673C63.5746 12.1617 63.267 11.7394 62.8282 11.4154C62.3895 11.0914 61.8523 10.9356 61.2003 10.9356C60.2817 10.9356 59.5518 11.2596 59.0146 11.9321C58.4774 12.6005 58.2109 13.5396 58.2109 14.7616C58.2109 15.9836 58.4774 16.9021 59.0146 17.5747C59.5518 18.2431 60.2776 18.5711 61.2003 18.5711C62.5043 18.5711 63.3449 17.997 63.7468 16.8324H67.216C66.8715 18.2103 66.1621 19.3011 65.1287 20.1212C64.0954 20.9249 62.7913 21.3473 61.2208 21.3473C59.9947 21.3473 58.9039 21.0808 57.9648 20.5231C57.0052 19.9859 56.2794 19.2231 55.7422 18.2267C55.205 17.2302 54.9385 16.0861 54.9385 14.7657C54.9385 13.4452 55.205 12.297 55.7422 11.3047V11.3416Z" fill="#A63F78"/>
<path d="M72.5469 20.5231C71.5668 19.99 70.8 19.2067 70.2259 18.2144C69.6682 17.222 69.3812 16.0779 69.3812 14.7821C69.3812 13.4863 69.6682 12.3422 70.2464 11.3498C70.8205 10.3574 71.6078 9.59468 72.6043 9.04109C73.6008 8.508 74.7162 8.22095 75.9423 8.22095C77.1684 8.22095 78.2838 8.48749 79.2803 9.04109C80.2767 9.57418 81.0641 10.3574 81.6382 11.3498C82.2123 12.3422 82.5034 13.4863 82.5034 14.7821C82.5034 16.0779 82.2164 17.222 81.6218 18.2144C81.0272 19.2067 80.2398 19.9695 79.2229 20.5231C78.2264 21.0562 77.0946 21.3432 75.848 21.3432C74.6014 21.3432 73.5065 21.0767 72.5305 20.5231H72.551H72.5469ZM77.517 18.1201C78.0337 17.833 78.4396 17.4147 78.7431 16.8406C79.0506 16.2665 79.2024 15.5817 79.2024 14.7821C79.2024 13.5806 78.8743 12.6456 78.2428 11.9977C77.6113 11.3498 76.8239 11.0258 75.9013 11.0258C74.9786 11.0258 74.2118 11.3498 73.5803 11.9977C72.9652 12.6456 72.6412 13.5806 72.6412 14.7821C72.6412 15.9836 72.9488 16.9185 73.5434 17.5665C74.1585 18.2144 74.9048 18.5383 75.8275 18.5383C76.4016 18.5383 76.9593 18.403 77.476 18.1201H77.5129H77.517Z" fill="#A63F78"/>
<path d="M89.6878 8.95499C90.4342 8.56952 91.2748 8.38089 92.2385 8.38089C93.358 8.38089 94.3545 8.64744 95.2566 9.18463C96.1588 9.72182 96.8641 10.4887 97.3931 11.4687C97.9221 12.4488 98.1763 13.597 98.1763 14.901C98.1763 16.205 97.9221 17.3573 97.3931 18.3743C96.8641 19.3913 96.1588 20.1581 95.2566 20.7158C94.3545 21.2735 93.3539 21.5401 92.2385 21.5401C91.2584 21.5401 90.4137 21.3473 89.6878 20.9824C88.962 20.6174 88.3756 20.1212 87.9409 19.5266V21.3473H84.644V4.31299H87.9409V10.4517C88.3715 9.83664 88.9415 9.34046 89.6878 8.95499ZM94.3545 12.9245C94.0428 12.3668 93.6081 11.9444 93.0791 11.641C92.5501 11.3539 91.9801 11.1981 91.3732 11.1981C90.7663 11.1981 90.2168 11.3498 89.6878 11.641C89.1589 11.9485 88.7488 12.3709 88.4125 12.945C88.0968 13.5191 87.9204 14.1711 87.9204 14.9379C87.9204 15.7048 88.0763 16.3773 88.4125 16.9309C88.7447 17.4886 89.1589 17.9273 89.6878 18.2349C90.2168 18.5424 90.7663 18.6778 91.3732 18.6778C91.9801 18.6778 92.5501 18.526 93.0791 18.2185C93.6081 17.9109 94.0223 17.4722 94.3545 16.9145C94.6866 16.3568 94.8465 15.6678 94.8465 14.8805C94.8465 14.0932 94.6907 13.4412 94.3545 12.8876V12.9245Z" fill="#A63F78"/>
<path d="M103.585 20.5231C102.576 19.99 101.785 19.2067 101.19 18.2144C100.616 17.222 100.321 16.0779 100.321 14.7821C100.321 13.4863 100.616 12.3422 101.211 11.3498C101.805 10.3574 102.613 9.59468 103.643 9.04109C104.672 8.508 105.82 8.22095 107.087 8.22095C108.354 8.22095 109.502 8.48749 110.532 9.04109C111.561 9.57418 112.373 10.3574 112.963 11.3498C113.558 12.3422 113.853 13.4863 113.853 14.7821C113.853 16.0779 113.558 17.222 112.943 18.2144C112.328 19.2067 111.52 19.9695 110.47 20.5231C109.441 21.0562 108.276 21.3432 106.989 21.3432C105.701 21.3432 104.573 21.0767 103.565 20.5231H103.585ZM108.707 18.1201C109.24 17.833 109.658 17.4147 109.974 16.8406C110.29 16.2665 110.45 15.5817 110.45 14.7821C110.45 13.5806 110.113 12.6456 109.461 11.9977C108.809 11.3498 107.998 11.0258 107.05 11.0258C106.103 11.0258 105.307 11.3498 104.655 11.9977C104.024 12.6456 103.688 13.5806 103.688 14.7821C103.688 15.9836 104.003 16.9185 104.619 17.5665C105.25 18.2144 106.025 18.5383 106.972 18.5383C107.567 18.5383 108.141 18.403 108.674 18.1201H108.715H108.707Z" fill="#A63F78"/>
</svg>
