<?xml version="1.0" encoding="utf-8"?>
<!-- Generator: Adobe Illustrator 26.5.0, SVG Export Plug-In . SVG Version: 6.00 Build 0)  -->
<svg version="1.1" id="Capa_1" xmlns="http://www.w3.org/2000/svg" xmlns:xlink="http://www.w3.org/1999/xlink" x="0px" y="0px"
	 viewBox="0 0 467 124" style="enable-background:new 0 0 467 124;" xml:space="preserve">
<style type="text/css">
	.st0{clip-path:url(#SVGID_00000063595864285245745900000001297472172040790152_);}
	.st1{fill:#007EC9;}
	.st2{fill:#FFFFFF;}
</style>
<g>
	<defs>
		<rect id="SVGID_1_" width="466.1" height="123.6"/>
	</defs>
	<clipPath id="SVGID_00000038391556939174182940000008919747598108947867_">
		<use xlink:href="#SVGID_1_"  style="overflow:visible;"/>
	</clipPath>
	<g style="clip-path:url(#SVGID_00000038391556939174182940000008919747598108947867_);">
		<path class="st1" d="M61.8,0H0v123.6c34.1,0,61.8-27.7,61.8-61.8v61.8c34.1,0,61.8-27.7,61.8-61.8S95.9,0,61.8,0z"/>
		<path class="st1" d="M168.3,6.2c7.7,0,14,2.2,18.9,6.7c4.9,4.5,7.4,10.2,7.4,17.3s-2.5,12.9-7.4,17.4c-4.9,4.5-11.2,6.7-18.9,6.7
			h-16.9V6.2H168.3z M163.1,45.4h5.2c4.5,0,8-1.4,10.5-4.1c2.6-2.7,3.8-6.4,3.8-11s-1.3-8.3-3.8-11c-2.6-2.7-6.1-4.1-10.5-4.1h-5.2
			V45.4z"/>
		<path class="st1" d="M212.7,11.8c-1.3,1.3-2.9,2-4.9,2c-1.9,0-3.5-0.7-4.9-2c-1.3-1.3-2-3-2-4.9c0-1.9,0.7-3.6,2-4.9
			c1.3-1.3,2.9-2,4.9-2c1.9,0,3.5,0.7,4.9,2c1.3,1.3,2,3,2,4.9C214.7,8.8,214,10.5,212.7,11.8z M202,54.3V16.1h11.7v38.2H202z"/>
		<path class="st1" d="M235.7,16.1v5.6c2.4-4,6.3-6,11.6-6c4.4,0,7.9,1.5,10.7,4.4C260.6,23,262,27,262,32v22.3h-11.6V33.5
			c0-2.5-0.7-4.4-2-5.7c-1.3-1.3-3.1-2-5.4-2s-4.1,0.7-5.4,2c-1.3,1.3-2,3.3-2,5.7v20.7H224V16.1H235.7z"/>
		<path class="st1" d="M274.2,49.3c-3.4-3.7-5.1-8.3-5.1-14s1.7-10.4,5.1-14.1c3.4-3.7,7.5-5.5,12.4-5.5s8.6,1.8,11.2,5.4v-5h11.7
			v38.2h-11.7v-5.5c-2.8,4-6.6,6-11.4,6C281.6,54.8,277.5,52.9,274.2,49.3z M295.2,42.2c1.7-1.6,2.5-4,2.5-7c0-3-0.8-5.3-2.5-7
			c-1.7-1.6-3.6-2.4-5.8-2.4s-4.1,0.8-5.8,2.5c-1.7,1.6-2.5,4-2.5,7s0.8,5.3,2.5,7c1.7,1.6,3.6,2.4,5.8,2.4S293.5,43.8,295.2,42.2z"
			/>
		<path class="st1" d="M317.1,27.6c0-3.4,1.4-6.2,4.3-8.5c2.9-2.3,6.8-3.4,11.7-3.4c4.9,0,8.9,1.1,11.9,3.4c3,2.2,4.6,5.3,4.8,9.2
			h-12c-0.1-1.3-0.6-2.2-1.4-2.7c-0.8-0.5-1.9-0.7-3.5-0.7c-3.1,0-4.6,0.9-4.6,2.8c0,1.7,1.9,2.9,5.6,3.5c3.8,0.6,7.2,1.6,10.3,2.9
			c1.6,0.6,2.9,1.7,4,3.2c1.1,1.5,1.6,3.3,1.6,5.4c0,3.6-1.5,6.5-4.6,8.7c-3.1,2.3-6.9,3.4-11.6,3.4c-4.7,0-8.5-1.1-11.6-3.2
			c-3.1-2.1-4.8-5.3-5.1-9.4h12c0.3,2.3,2,3.5,4.9,3.5c1.4,0,2.5-0.3,3.4-1c0.9-0.6,1.3-1.5,1.3-2.5c0-1-0.7-1.8-2.2-2.4
			c-1.5-0.6-3.3-1.1-5.4-1.5c-2.1-0.4-4.2-0.9-6.3-1.5c-2.1-0.6-3.9-1.7-5.4-3.2C317.9,32.1,317.1,30.1,317.1,27.6L317.1,27.6z"/>
		<path class="st1" d="M360,49.3c-3.4-3.7-5.1-8.3-5.1-14s1.7-10.4,5.1-14.1c3.4-3.7,7.5-5.5,12.4-5.5c4.9,0,8.6,1.8,11.2,5.4v-5
			h11.7v38c0,5.3-1.5,9.8-4.4,13.4c-1.5,1.8-3.5,3.2-6,4.2c-2.5,1-5.5,1.5-8.8,1.5c-5.8,0-10.5-1.2-13.9-3.6
			c-3.4-2.4-5.4-6-5.8-10.9h11.5c1.1,2.9,3.8,4.3,8.2,4.3c2.1,0,3.9-0.7,5.3-2.2c1.4-1.4,2.1-3.7,2.1-6.8v-5.3c-2.8,4-6.6,6-11.4,6
			C367.4,54.8,363.3,53,360,49.3L360,49.3z M381,42.2c1.7-1.6,2.5-4,2.5-7c0-3-0.8-5.3-2.5-7c-1.7-1.6-3.6-2.4-5.8-2.4
			s-4.1,0.8-5.8,2.5c-1.7,1.6-2.5,4-2.5,7s0.8,5.3,2.5,7c1.7,1.6,3.6,2.4,5.8,2.4S379.3,43.8,381,42.2z"/>
		<path class="st1" d="M407.7,49.3c-3.4-3.7-5.1-8.3-5.1-14s1.7-10.4,5.1-14.1c3.4-3.7,7.5-5.5,12.4-5.5c4.9,0,8.6,1.8,11.2,5.4v-5
			H443v38.2h-11.7v-5.5c-2.8,4-6.6,6-11.4,6C415.2,54.8,411.1,52.9,407.7,49.3z M428.8,42.2c1.7-1.6,2.5-4,2.5-7c0-3-0.8-5.3-2.5-7
			c-1.7-1.6-3.6-2.4-5.8-2.4s-4.1,0.8-5.8,2.5c-1.7,1.6-2.5,4-2.5,7s0.8,5.3,2.5,7c1.7,1.6,3.6,2.4,5.8,2.4S427.1,43.8,428.8,42.2z"
			/>
		<path class="st1" d="M462.2,1c1.2,0.7,2.2,1.7,2.9,2.9c0.7,1.2,1,2.6,1,4.2s-0.3,3-1,4.2c-0.7,1.2-1.6,2.2-2.9,2.9
			c-1.2,0.7-2.6,1-4.2,1c-1.6,0-3-0.4-4.2-1c-1.2-0.7-2.2-1.7-2.9-2.9c-0.7-1.2-1-2.6-1-4.2s0.3-3,1-4.2c0.7-1.2,1.7-2.2,2.9-2.9
			c1.2-0.7,2.6-1,4.2-1C459.6,0,461,0.3,462.2,1z M454.2,1.8c-1.1,0.6-1.9,1.4-2.5,2.5c-0.6,1.1-0.9,2.3-0.9,3.8s0.3,2.7,0.9,3.8
			c0.6,1.1,1.4,1.9,2.5,2.6c1.1,0.6,2.3,0.9,3.8,0.9c1.5,0,2.7-0.3,3.8-0.9c1.1-0.6,1.9-1.5,2.5-2.6c0.6-1.1,0.9-2.4,0.9-3.8
			c0-1.4-0.3-2.7-0.9-3.8c-0.6-1.1-1.4-1.9-2.5-2.5c-1.1-0.6-2.3-0.9-3.8-0.9C456.6,0.9,455.3,1.2,454.2,1.8z M455.4,3.5
			c-0.8,0.4-1.4,1-1.8,1.8c-0.5,0.8-0.7,1.7-0.7,2.8c0,1.1,0.2,2,0.7,2.8c0.5,0.8,1.1,1.4,1.8,1.9c0.8,0.4,1.6,0.7,2.6,0.7
			c1.2,0,2.2-0.3,3-0.9c0.9-0.6,1.4-1.4,1.8-2.5h-2c-0.5,1.3-1.4,1.9-2.8,1.9c-0.9,0-1.7-0.3-2.3-1c-0.6-0.7-0.9-1.6-0.9-2.8
			c0-1.2,0.3-2.2,0.9-2.8c0.6-0.7,1.4-1,2.3-1c0.7,0,1.3,0.2,1.8,0.5c0.5,0.3,0.9,0.8,1.1,1.4h2c-0.3-1.1-0.9-1.9-1.7-2.5
			c-0.9-0.6-1.9-0.9-3.1-0.9C457,2.8,456.2,3.1,455.4,3.5L455.4,3.5z"/>
		<path class="st2" d="M168.1,90.2v3.2h-6.4v20.8h-3.9V93.4h-6.4v-3.2H168.1z"/>
		<path class="st2" d="M190.8,106.2h-14.5c0.1,1.5,0.7,2.7,1.7,3.7c1,0.9,2.3,1.4,3.7,1.4c2.1,0,3.6-0.9,4.5-2.7h4.2
			c-0.6,1.8-1.6,3.2-3.1,4.3c-1.5,1.1-3.4,1.7-5.6,1.7c-1.8,0-3.4-0.4-4.9-1.2c-1.4-0.8-2.6-2-3.4-3.4c-0.8-1.5-1.2-3.2-1.2-5.2
			c0-2,0.4-3.7,1.2-5.2c0.8-1.5,1.9-2.6,3.3-3.4c1.4-0.8,3.1-1.2,5-1.2c1.9,0,3.4,0.4,4.8,1.2c1.4,0.8,2.5,1.9,3.3,3.3
			c0.8,1.4,1.2,3,1.2,4.9C190.9,105,190.9,105.6,190.8,106.2L190.8,106.2z M186.8,103c0-1.4-0.5-2.6-1.6-3.5c-1-0.9-2.3-1.3-3.8-1.3
			c-1.4,0-2.5,0.4-3.5,1.3c-1,0.9-1.5,2-1.7,3.5H186.8z"/>
		<path class="st2" d="M196,99.5c0.8-1.5,1.9-2.6,3.3-3.4c1.4-0.8,3-1.2,4.8-1.2c2.3,0,4.2,0.5,5.7,1.6c1.5,1.1,2.5,2.7,3.1,4.7
			h-4.2c-0.3-0.9-0.9-1.7-1.7-2.2c-0.8-0.5-1.7-0.8-2.9-0.8c-1.6,0-2.9,0.6-3.8,1.7c-1,1.1-1.4,2.7-1.4,4.8c0,2,0.5,3.6,1.4,4.8
			c1,1.1,2.2,1.7,3.8,1.7c2.3,0,3.8-1,4.5-3h4.2c-0.6,1.9-1.6,3.5-3.1,4.6c-1.5,1.1-3.4,1.7-5.7,1.7c-1.8,0-3.4-0.4-4.8-1.2
			c-1.4-0.8-2.5-2-3.3-3.4c-0.8-1.5-1.2-3.2-1.2-5.2C194.9,102.7,195.2,101,196,99.5L196,99.5z"/>
		<path class="st2" d="M232,95.8c1.1,0.6,2,1.5,2.7,2.8c0.7,1.2,1,2.7,1,4.4v11.2h-3.9v-10.6c0-1.7-0.4-3-1.3-3.9
			c-0.9-0.9-2-1.4-3.5-1.4s-2.6,0.5-3.5,1.4c-0.9,0.9-1.3,2.2-1.3,3.9v10.6h-3.9V88.7h3.9v8.7c0.7-0.8,1.5-1.4,2.5-1.9
			c1-0.4,2.1-0.7,3.4-0.7C229.5,94.9,230.8,95.2,232,95.8L232,95.8z"/>
		<path class="st2" d="M255.6,95.8c1.2,0.6,2.1,1.5,2.8,2.8c0.7,1.2,1,2.7,1,4.4v11.2h-3.9v-10.6c0-1.7-0.4-3-1.3-3.9
			c-0.9-0.9-2-1.4-3.5-1.4c-1.5,0-2.6,0.5-3.5,1.4c-0.9,0.9-1.3,2.2-1.3,3.9v10.6H242v-19h3.9v2.2c0.6-0.8,1.5-1.4,2.5-1.8
			c1-0.4,2.1-0.7,3.2-0.7C253.1,94.9,254.5,95.2,255.6,95.8L255.6,95.8z"/>
		<path class="st2" d="M269.2,113.3c-1.5-0.8-2.6-2-3.4-3.4c-0.8-1.5-1.2-3.2-1.2-5.2c0-2,0.4-3.6,1.3-5.1c0.9-1.5,2-2.6,3.5-3.5
			c1.5-0.8,3.1-1.2,4.9-1.2c1.8,0,3.5,0.4,4.9,1.2c1.5,0.8,2.6,2,3.5,3.5c0.9,1.5,1.3,3.2,1.3,5.1c0,1.9-0.4,3.6-1.3,5.1
			s-2.1,2.7-3.6,3.5c-1.5,0.8-3.2,1.2-5,1.2C272.2,114.5,270.6,114.1,269.2,113.3L269.2,113.3z M276.9,110.4
			c0.9-0.5,1.6-1.2,2.2-2.2c0.6-1,0.8-2.1,0.8-3.5c0-1.4-0.3-2.5-0.8-3.5c-0.5-1-1.2-1.7-2.1-2.2c-0.9-0.5-1.8-0.7-2.8-0.7
			c-1,0-1.9,0.2-2.8,0.7c-0.9,0.5-1.5,1.2-2.1,2.2c-0.5,1-0.8,2.1-0.8,3.5c0,2,0.5,3.6,1.6,4.7c1.1,1.1,2.4,1.7,3.9,1.7
			C275,111.1,276,110.9,276.9,110.4L276.9,110.4z"/>
		<path class="st2" d="M293.1,88.7v25.5h-3.9V88.7H293.1z"/>
		<path class="st2" d="M303,113.3c-1.5-0.8-2.6-2-3.4-3.4c-0.8-1.5-1.2-3.2-1.2-5.2c0-2,0.4-3.6,1.3-5.1c0.9-1.5,2-2.6,3.5-3.5
			c1.5-0.8,3.1-1.2,4.9-1.2c1.8,0,3.5,0.4,4.9,1.2c1.5,0.8,2.6,2,3.5,3.5c0.9,1.5,1.3,3.2,1.3,5.1c0,1.9-0.4,3.6-1.3,5.1
			s-2.1,2.7-3.6,3.5c-1.5,0.8-3.2,1.2-5,1.2C306.1,114.5,304.5,114.1,303,113.3L303,113.3z M310.7,110.4c0.9-0.5,1.6-1.2,2.2-2.2
			c0.6-1,0.8-2.1,0.8-3.5c0-1.4-0.3-2.5-0.8-3.5c-0.5-1-1.2-1.7-2.1-2.2c-0.9-0.5-1.8-0.7-2.8-0.7c-1,0-1.9,0.2-2.8,0.7
			c-0.9,0.5-1.5,1.2-2.1,2.2c-0.5,1-0.8,2.1-0.8,3.5c0,2,0.5,3.6,1.6,4.7c1.1,1.1,2.4,1.7,3.9,1.7
			C308.9,111.1,309.9,110.9,310.7,110.4L310.7,110.4z"/>
		<path class="st2" d="M334.6,95.8c1.1,0.6,2,1.3,2.7,2.2v-2.8h4v19.3c0,1.7-0.4,3.3-1.1,4.7c-0.7,1.4-1.8,2.4-3.2,3.2
			c-1.4,0.8-3,1.2-5,1.2c-2.6,0-4.7-0.6-6.4-1.8c-1.7-1.2-2.7-2.8-2.9-4.9h3.9c0.3,1,0.9,1.8,1.9,2.4c1,0.6,2.1,0.9,3.5,0.9
			c1.6,0,2.9-0.5,3.9-1.5c1-1,1.5-2.4,1.5-4.2v-3.2c-0.7,0.9-1.6,1.7-2.7,2.3c-1.1,0.6-2.4,0.9-3.9,0.9c-1.7,0-3.2-0.4-4.5-1.3
			c-1.4-0.8-2.5-2-3.2-3.5c-0.8-1.5-1.2-3.2-1.2-5.1c0-1.9,0.4-3.6,1.2-5.1c0.8-1.5,1.9-2.6,3.2-3.4c1.4-0.8,2.9-1.2,4.5-1.2
			C332.2,94.9,333.5,95.2,334.6,95.8L334.6,95.8z M336.5,101.3c-0.5-1-1.2-1.7-2.1-2.2c-0.9-0.5-1.8-0.8-2.8-0.8c-1,0-2,0.3-2.8,0.7
			c-0.9,0.5-1.6,1.2-2.1,2.2c-0.5,1-0.8,2.1-0.8,3.4s0.3,2.5,0.8,3.5c0.5,1,1.3,1.7,2.1,2.3c0.9,0.5,1.8,0.8,2.8,0.8
			c1,0,2-0.3,2.8-0.8c0.9-0.5,1.6-1.2,2.1-2.2c0.5-1,0.8-2.1,0.8-3.4C337.3,103.4,337,102.2,336.5,101.3L336.5,101.3z"/>
		<path class="st2" d="M348,92c-0.5-0.5-0.7-1.1-0.7-1.8c0-0.7,0.2-1.3,0.7-1.8c0.5-0.5,1.1-0.7,1.8-0.7c0.7,0,1.3,0.2,1.8,0.7
			c0.5,0.5,0.7,1.1,0.7,1.8c0,0.7-0.2,1.3-0.7,1.8c-0.5,0.5-1.1,0.7-1.8,0.7C349.1,92.7,348.5,92.4,348,92z M351.8,95.2v19h-3.9v-19
			H351.8z"/>
		<path class="st2" d="M375.6,106.2h-14.5c0.1,1.5,0.7,2.7,1.7,3.7c1,0.9,2.3,1.4,3.7,1.4c2.1,0,3.6-0.9,4.5-2.7h4.2
			c-0.6,1.8-1.6,3.2-3.1,4.3c-1.5,1.1-3.4,1.7-5.6,1.7c-1.8,0-3.4-0.4-4.9-1.2c-1.4-0.8-2.6-2-3.4-3.4c-0.8-1.5-1.2-3.2-1.2-5.2
			c0-2,0.4-3.7,1.2-5.2c0.8-1.5,1.9-2.6,3.3-3.4c1.4-0.8,3.1-1.2,5-1.2c1.9,0,3.4,0.4,4.8,1.2c1.4,0.8,2.5,1.9,3.3,3.3
			c0.8,1.4,1.2,3,1.2,4.9C375.7,105,375.7,105.6,375.6,106.2L375.6,106.2z M371.6,103c0-1.4-0.5-2.6-1.6-3.5c-1-0.9-2.3-1.3-3.8-1.3
			c-1.4,0-2.5,0.4-3.5,1.3c-1,0.9-1.5,2-1.7,3.5H371.6z"/>
		<path class="st2" d="M383.9,113.7c-1.2-0.5-2.1-1.3-2.8-2.2c-0.7-0.9-1.1-2-1.1-3.1h4.1c0.1,0.8,0.5,1.5,1.2,2
			c0.7,0.5,1.6,0.8,2.6,0.8s2-0.2,2.6-0.6c0.6-0.4,0.9-1,0.9-1.6c0-0.7-0.3-1.2-1-1.6c-0.7-0.3-1.8-0.7-3.2-1.1
			c-1.4-0.4-2.6-0.8-3.5-1.1c-0.9-0.4-1.7-0.9-2.3-1.7c-0.7-0.8-1-1.8-1-3c0-1,0.3-1.9,0.9-2.8c0.6-0.8,1.5-1.5,2.6-2
			c1.1-0.5,2.4-0.7,3.8-0.7c2.2,0,3.9,0.5,5.2,1.6c1.3,1.1,2,2.6,2.1,4.5H391c-0.1-0.9-0.4-1.5-1-2c-0.6-0.5-1.5-0.8-2.5-0.8
			c-1.1,0-1.8,0.2-2.4,0.6c-0.6,0.4-0.8,0.9-0.8,1.6c0,0.5,0.2,0.9,0.6,1.3c0.4,0.3,0.8,0.6,1.3,0.8c0.5,0.2,1.3,0.4,2.3,0.7
			c1.4,0.4,2.5,0.7,3.4,1.1c0.9,0.4,1.7,0.9,2.3,1.7c0.6,0.7,1,1.7,1,2.9c0,1.1-0.3,2-0.9,2.9c-0.6,0.9-1.4,1.5-2.5,2
			c-1.1,0.5-2.4,0.7-3.8,0.7C386.4,114.5,385,114.2,383.9,113.7L383.9,113.7z"/>
	</g>
</g>
</svg>
